<svg xmlns="http://www.w3.org/2000/svg" viewBox="0 0 120 90" fill="none">
<path d="M57 45C32 10 2 16 14 47c9 23 32 15 43-2Z" fill="#f0c481" opacity=".62" stroke="#a77645" stroke-width="2"/>
<path d="M63 45C88 10 118 16 106 47c-9 23-32 15-43-2Z" fill="#d6def7" opacity=".72" stroke="#6b78a6" stroke-width="2"/>
<path d="M58 47C35 82 8 73 23 51c11-17 27-11 35-4Z" fill="#f4d9a5" opacity=".55" stroke="#a77645" stroke-width="1.6"/>
<path d="M62 47c23 35 50 26 35 4-11-17-27-11-35-4Z" fill="#bfcaf2" opacity=".55" stroke="#6b78a6" stroke-width="1.6"/>
<path d="M60 36v32" stroke="#5f573f" stroke-width="3" stroke-linecap="round"/>
<path d="M60 36C55 25 49 21 42 18M60 36c5-11 11-15 18-18" stroke="#5f573f" stroke-width="1.6" stroke-linecap="round"/>
</svg>